<svg height="2621" width="1118.6" xmlns="http://www.w3.org/2000/svg" xmlns:xlink="http://www.w3.org/1999/xlink"><defs><path id="a" d="m205 0-28-72h-113l-28 72h-35l101-248h38l99 248zm-38-99-47-123c-12 45-31 82-46 123z" fill="#3a414a"/><use id="b" transform="scale(.0617284)" xlink:href="#a"/><path id="c" d="m138-118-54-112-54 112h-28l64-130h36l65 130z" fill="#3a414a"/><use id="d" transform="scale(.0617284)" xlink:href="#c"/><path id="e" d="m160-131c35 5 61 23 61 61 0 87-106 68-191 70v-248c76 3 177-17 177 60 0 33-19 50-47 57zm-97-11c50-1 110 9 110-42 0-47-63-36-110-37zm0 115c55-2 124 14 124-45 0-56-70-42-124-44z" fill="#3a414a"/><use id="f" transform="scale(.0617284)" xlink:href="#e"/><path id="g" d="m24-231v-30h32v30zm0 231v-190h32v190z" fill="#3a414a"/><path id="h" d="m117-194c89-4 53 116 60 194h-32v-121c0-31-8-49-39-48-72 2-44 102-49 169h-32l-1-190h30c1 10-1 24 2 32 11-22 29-35 61-36" fill="#3a414a"/><path id="i" d="m115-194c55 1 70 41 70 98s-16 98-70 100c-31 0-49-13-60-34l1 105h-32l-1-265h31l2 30c10-21 28-34 59-34zm-8 174c40 0 45-34 45-75s-6-73-45-74c-42 0-51 32-51 76 0 43 10 73 51 73" fill="#3a414a"/><path id="j" d="m84 4c-89 4-54-116-61-194h32v120c0 31 7 50 39 49 72-2 45-101 50-169h31l1 190h-30c-1-10 1-25-2-33-11 22-28 36-60 37" fill="#3a414a"/><path id="k" d="m59-47c-2 24 18 29 38 22v24c-33 10-70 5-70-39v-127h-22v-23h24l9-43h21v43h35v23h-35z" fill="#3a414a"/><path id="l" d="m33-154v-36h34v36zm0 154v-36h34v36z" fill="#3a414a"/><path id="m" d="m141-36c-15 21-31 41-68 40-36-1-58-21-58-57-1-64 63-63 125-63 3-35-9-54-41-54-24 1-41 7-42 31l-33-3c5-37 33-52 76-52 45 0 72 20 72 64v82c-1 20 7 32 28 27v20c-31 9-61-2-59-35zm-93-17c0 20 12 33 32 33 41-3 63-29 60-74-43 2-92-5-92 41" fill="#3a414a"/><path id="n" d="m-5 72v-23h209v23z" fill="#3a414a"/><path id="o" d="m68-38c1 34 0 65-14 84h-22c9-13 17-26 17-46h-16v-38z" fill="#3a414a"/><path id="p" d="m115-194c53 0 69 39 70 98 0 66-23 100-70 100-31-1-49-11-59-34l-2 30h-31l1-261h32v101c10-23 28-34 59-34zm-8 174c40 0 45-34 45-75 0-40-5-75-45-74-42 0-51 32-51 76 0 43 10 73 51 73" fill="#3a414a"/><path id="q" d="m87 75c-38-42-65-92-65-169 0-76 28-126 65-167h31c-38 41-64 92-64 168s26 127 64 168z" fill="#3a414a"/><path id="r" d="m185-189c-5-48-123-54-124 2 14 75 158 14 163 119 3 78-121 87-175 55-17-10-28-26-33-46l33-7c5 56 141 63 141-1 0-78-155-14-162-118-5-82 145-84 179-34 5 7 8 16 11 25" fill="#3a414a"/><path id="s" d="m30 0v-248h187v28h-154v79h144v27h-144v87h162v27z" fill="#3a414a"/><path id="t" d="m63-220v92h138v28h-138v100h-33v-248h175v28z" fill="#3a414a"/><path id="u" d="m33-261c38 41 65 92 65 168s-27 127-65 168h-31c37-41 64-92 64-168s-27-127-64-168z" fill="#3a414a"/><use id="v" transform="scale(.0617284)" xlink:href="#o"/><path id="w" d="m30 0v-248h33v221h125v27z" fill="#3a414a"/><path id="x" d="m30-248c118-7 216 8 213 122-3 78-43 126-121 126h-92zm33 221c89 8 146-16 146-99s-60-101-146-95z" fill="#3a414a"/><path id="y" d="m114-163c-78-16-53 91-57 163h-32l-1-190h30c1 12-1 29 2 39 6-27 23-49 58-41z" fill="#3a414a"/><path id="z" d="m145-31c-11 22-29 35-60 35-53 0-69-39-70-98 0-59 17-99 70-100 32-1 48 14 60 33 0-11-1-24 2-32h30l-1 268h-32zm-52 10c41 0 51-33 51-76s-8-73-50-73c-40 0-46 35-46 75s5 74 45 74" fill="#3a414a"/><path id="A" d="m100-194c63 0 86 42 84 106h-135c0 40 14 67 53 68 26 1 43-12 49-29l28 8c-11 28-37 45-77 45-58 0-88-37-87-100 1-61 26-98 85-98zm52 81c6-60-76-77-97-28-3 7-6 17-6 28z" fill="#3a414a"/><use id="B" transform="scale(.0617284)" xlink:href="#z"/><path id="C" d="m18-150v-26h174v26zm0 90v-26h174v26z" fill="#3a414a"/><use id="D" transform="scale(.0617284)" xlink:href="#C"/><path id="E" d="m101-251c68 0 85 55 85 127s-20 128-86 128c-67 0-86-56-86-128 0-73 17-127 87-127zm-1 229c47 0 54-49 54-102s-4-102-53-102c-51 0-55 48-55 102 0 53 5 102 54 102" fill="#3a414a"/><path id="F" d="m135-143c-3-34-86-38-87 0 15 53 115 12 119 90s-150 74-157 8l28-5c4 36 97 45 98 0-10-56-113-15-118-90-4-57 82-63 122-42 12 7 21 19 24 35" fill="#3a414a"/><use id="G" transform="scale(.0617284)" xlink:href="#s"/><path id="H" d="m16-82v-28h88v28z" fill="#3a414a"/><path id="I" d="m27 0v-27h64v-190l-56 39v-29l58-41h29v221h61v27z" fill="#3a414a"/><path id="J" d="m73-63c20-9 34-24 48-39h13c-7 13-13 25-21 35h174v15h-174c8 9 14 21 21 34h-13c-14-15-29-29-48-39z" fill="#3a414a"/><use id="K" transform="scale(.0617284)" xlink:href="#J"/><path id="L" d="m33 0v-38h34v38z" fill="#3a414a"/><path id="M" d="m101-251c82-7 93 87 43 132l-62 55c-11 11-23 22-29 37h129v27h-164c2-99 128-94 128-182 0-28-16-43-45-43s-46 15-49 41l-32-3c6-41 34-60 81-64" fill="#3a414a"/><use id="N" transform="scale(.0617284)" xlink:href="#t"/><path id="O" d="m177-190c-10 125 41 293-110 261-23-6-38-20-44-43l32-5c15 47 100 32 89-28v-30c-11 21-29 36-61 36-54 0-68-41-68-96 0-56 16-97 71-98 29-1 48 16 59 35 1-10 0-23 2-32zm-83 168c36 0 50-32 50-73 0-42-14-75-50-75-39 0-46 34-46 75s6 73 46 73" fill="#3a414a"/><path id="P" d="m18-100v-36l175-74v27l-151 65 151 64v27" fill="#3a414a"/><path id="Q" d="m101-234c-31-9-42 10-38 44h38v23h-38v167h-31v-167h-27v-23h27c-7-52 17-82 69-68z" fill="#3a414a"/><use id="R" transform="scale(.0617284)" xlink:href="#m"/><use id="S" transform="scale(.0617284)" xlink:href="#p"/><path id="T" d="m47-170h-25l-4-78h33" fill="#3a414a"/><g id="U"><use transform="scale(.0617284)" xlink:href="#r"/><use transform="matrix(.0617284 0 0 .0617284 14.814815 0)" xlink:href="#k"/><use transform="matrix(.0617284 0 0 .0617284 20.987654 0)" xlink:href="#m"/><use transform="matrix(.0617284 0 0 .0617284 33.333333 0)" xlink:href="#y"/><use transform="matrix(.0617284 0 0 .0617284 40.679012 0)" xlink:href="#k"/></g><use id="V" transform="scale(.0617284)" xlink:href="#I"/><use id="W" transform="scale(.0617284)" xlink:href="#E"/><path id="X" d="m101-251c68 0 84 54 84 127 0 74-19 128-86 128s-84-56-85-128c-1-75 17-127 87-127zm-1 216c37-5 36-46 36-89s4-89-36-89c-39 0-36 45-36 89 0 43-3 85 36 89" fill="#333"/><use id="Y" transform="scale(.04938272)" xlink:href="#X"/><path id="Z" d="m197 0v-115h-134v115h-33v-248h33v105h134v-105h34v248z" fill="#3a414a"/><g id="aa"><use transform="scale(.0617284)" xlink:href="#s"/><use transform="matrix(.0617284 0 0 .0617284 14.814815 0)" xlink:href="#H"/><use transform="matrix(.0617284 0 0 .0617284 22.160494 0)" xlink:href="#H"/></g><path id="ab" d="m23 0v-37h61v-169l-59 37v-38l62-41h46v211h57v37z" fill="#333"/><use id="ac" transform="scale(.04938272)" xlink:href="#ab"/><g id="ad"><use transform="scale(.0617284)" xlink:href="#s"/><use transform="matrix(.0617284 0 0 .0617284 14.814815 0)" xlink:href="#n"/><use transform="matrix(.0617284 0 0 .0617284 27.160494 0)" xlink:href="#h"/><use transform="matrix(.0617284 0 0 .0617284 39.506173 0)" xlink:href="#A"/><use transform="matrix(.0617284 0 0 .0617284 51.851852 0)" xlink:href="#O"/></g><path id="ae" d="m118-107v75h-26v-75h-74v-26h74v-75h26v75h74v26z" fill="#3a414a"/><g id="af"><use transform="scale(.0617284)" xlink:href="#s"/><use transform="matrix(.0617284 0 0 .0617284 14.814815 0)" xlink:href="#C"/><use transform="matrix(.0617284 0 0 .0617284 27.777778 0)" xlink:href="#E"/></g><g id="ag"><path d="m175 0-108-191c6 58 2 128 3 191h-46v-248h59l110 193c-6-58-2-129-3-193h46v248z" fill="#333" transform="scale(.04938272)"/><path d="m110-194c64 0 96 36 96 99 0 64-35 99-97 99-61 0-95-36-95-99 0-62 34-99 96-99zm-1 164c35 0 45-28 45-65 0-40-10-65-43-65-34 0-45 26-45 65 0 36 10 65 43 65" fill="#333" transform="matrix(.04938272 0 0 .04938272 12.790123 0)"/></g><g id="ah"><path d="m146-102v102h-52v-102l-88-146h54l60 105 60-105h54" fill="#333" transform="scale(.04938272)"/><path d="m185-48c-13 30-37 53-82 52-60-2-89-37-89-100s30-98 90-98c62 0 83 45 84 108h-122c0 31 8 55 39 56 18 0 30-7 34-22zm-45-69c5-46-57-63-70-21-2 6-4 13-4 21z" fill="#333" transform="matrix(.04938272 0 0 .04938272 10.864198 0)"/><path d="m137-138c1-29-70-34-71-4 15 46 118 7 119 86 1 83-164 76-172 9l43-7c4 19 20 25 44 25 33 8 57-30 24-41-43-14-102-11-104-66-2-80 154-74 161-7" fill="#333" transform="matrix(.04938272 0 0 .04938272 20.740741 0)"/></g><path id="ai" d="m96-169c-40 0-48 33-48 73s9 75 48 75c24 0 41-14 43-38l32 2c-6 37-31 61-74 61-59 0-76-41-82-99-10-93 101-131 147-64 4 7 5 14 7 22l-32 3c-4-21-16-35-41-35" fill="#3a414a"/><g id="aj"><use transform="scale(.0617284)" xlink:href="#F"/><use transform="matrix(.0617284 0 0 .0617284 11.111111 0)" xlink:href="#ai"/><use transform="matrix(.0617284 0 0 .0617284 22.222222 0)" xlink:href="#J"/><use transform="matrix(.0617284 0 0 .0617284 44.444444 0)" xlink:href="#Q"/></g><path id="ak" d="m233-177c-1 41-23 64-60 70l70 107h-38l-65-103h-77v103h-33v-248c88 3 205-21 203 71zm-170 48c60-2 137 13 137-47 0-61-80-42-137-45z" fill="#3a414a"/><use id="al" transform="scale(.0617284)" xlink:href="#g"/><path id="am" d="m80-196 47-18 7 23-49 13 32 44-20 13-27-46-27 45-21-12 33-44-49-13 8-23 47 19-2-53h23" fill="#3a414a"/><g id="an"><use transform="scale(.0617284)" xlink:href="#z"/><use transform="matrix(.0617284 0 0 .0617284 12.345679 0)" xlink:href="#J"/><use transform="matrix(.0617284 0 0 .0617284 34.567901 0)" xlink:href="#z"/><use transform="matrix(.0617284 0 0 .0617284 46.91358 0)" xlink:href="#am"/><use transform="matrix(.0617284 0 0 .0617284 55.555556 0)" xlink:href="#m"/></g><g id="ao"><use transform="scale(.0617284)" xlink:href="#F"/><use transform="matrix(.0617284 0 0 .0617284 11.111111 0)" xlink:href="#ai"/><use transform="matrix(.0617284 0 0 .0617284 22.222222 0)" xlink:href="#C"/><use transform="matrix(.0617284 0 0 .0617284 35.185185 0)" xlink:href="#E"/></g><path id="ap" d="m24-231v-30h32v30zm-33 280c24 4 33-6 33-30v-209h32v214c2 40-23 58-65 49z" fill="#3a414a"/><use id="aq" transform="scale(.0617284)" xlink:href="#ap"/></defs><g transform="translate(-295.197581 -79)"><path d="m730 100c60.75 0 110 49.25 110 110s-49.25 110-110 110h-120c-60.75 0-110-49.25-110-110s49.25-110 110-110z" fill="#fff" stroke="#282c33" stroke-width="2"/><use transform="translate(644.449444 175.277778)" xlink:href="#b"/><use transform="translate(664.202531 175.277778)" xlink:href="#d"/><use transform="translate(680.745741 175.277778)" xlink:href="#f"/><g transform="translate(525.740741 201.944444)"><use transform="scale(.0617284)" xlink:href="#g"/><use transform="matrix(.0617284 0 0 .0617284 4.876543 0)" xlink:href="#h"/><use transform="matrix(.0617284 0 0 .0617284 17.222222 0)" xlink:href="#i"/><use transform="matrix(.0617284 0 0 .0617284 29.567901 0)" xlink:href="#j"/><use transform="matrix(.0617284 0 0 .0617284 41.91358 0)" xlink:href="#k"/><use transform="matrix(.0617284 0 0 .0617284 48.08642 0)" xlink:href="#l"/></g><g transform="translate(586.17284 201.944444)"><use transform="scale(.0617284)" xlink:href="#m"/><use transform="matrix(.0617284 0 0 .0617284 12.345679 0)" xlink:href="#n"/><use transform="matrix(.0617284 0 0 .0617284 24.691358 0)" xlink:href="#g"/><use transform="matrix(.0617284 0 0 .0617284 29.567901 0)" xlink:href="#h"/><use transform="matrix(.0617284 0 0 .0617284 41.91358 0)" xlink:href="#i"/><use transform="matrix(.0617284 0 0 .0617284 54.259259 0)" xlink:href="#j"/><use transform="matrix(.0617284 0 0 .0617284 66.604938 0)" xlink:href="#k"/><use transform="matrix(.0617284 0 0 .0617284 72.777778 0)" xlink:href="#o"/></g><g transform="translate(671.296296 201.944444)"><use transform="scale(.0617284)" xlink:href="#p"/><use transform="matrix(.0617284 0 0 .0617284 12.345679 0)" xlink:href="#n"/><use transform="matrix(.0617284 0 0 .0617284 24.691358 0)" xlink:href="#g"/><use transform="matrix(.0617284 0 0 .0617284 29.567901 0)" xlink:href="#h"/><use transform="matrix(.0617284 0 0 .0617284 41.91358 0)" xlink:href="#i"/><use transform="matrix(.0617284 0 0 .0617284 54.259259 0)" xlink:href="#j"/><use transform="matrix(.0617284 0 0 .0617284 66.604938 0)" xlink:href="#k"/><use transform="matrix(.0617284 0 0 .0617284 72.777778 0)" xlink:href="#q"/><use transform="matrix(.0617284 0 0 .0617284 80.123457 0)" xlink:href="#r"/><use transform="matrix(.0617284 0 0 .0617284 94.938272 0)" xlink:href="#o"/><use transform="matrix(.0617284 0 0 .0617284 101.111111 0)" xlink:href="#s"/><use transform="matrix(.0617284 0 0 .0617284 115.925926 0)" xlink:href="#o"/><use transform="matrix(.0617284 0 0 .0617284 122.098765 0)" xlink:href="#t"/><use transform="matrix(.0617284 0 0 .0617284 135.617284 0)" xlink:href="#u"/></g><use transform="translate(575.030864 228.611111)" xlink:href="#v"/><g transform="translate(587.376543 228.611111)"><use transform="scale(.0617284)" xlink:href="#m"/><use transform="matrix(.0617284 0 0 .0617284 12.345679 0)" xlink:href="#n"/><use transform="matrix(.0617284 0 0 .0617284 24.691358 0)" xlink:href="#w"/><use transform="matrix(.0617284 0 0 .0617284 37.037037 0)" xlink:href="#x"/><use transform="matrix(.0617284 0 0 .0617284 53.024691 0)" xlink:href="#o"/></g><g transform="translate(652.746914 228.611111)"><use transform="scale(.0617284)" xlink:href="#p"/><use transform="matrix(.0617284 0 0 .0617284 12.345679 0)" xlink:href="#n"/><use transform="matrix(.0617284 0 0 .0617284 24.691358 0)" xlink:href="#w"/><use transform="matrix(.0617284 0 0 .0617284 37.037037 0)" xlink:href="#x"/><use transform="matrix(.0617284 0 0 .0617284 53.024691 0)" xlink:href="#o"/></g><g transform="translate(718.117284 228.611111)"><use transform="scale(.0617284)" xlink:href="#r"/><use transform="matrix(.0617284 0 0 .0617284 14.814815 0)" xlink:href="#k"/><use transform="matrix(.0617284 0 0 .0617284 20.987654 0)" xlink:href="#m"/><use transform="matrix(.0617284 0 0 .0617284 33.333333 0)" xlink:href="#y"/><use transform="matrix(.0617284 0 0 .0617284 40.679012 0)" xlink:href="#k"/></g><g transform="translate(602.103765 255.277778)"><path d="m100-194c62-1 85 37 85 99 1 63-27 99-86 99s-83-39-84-99c0-66 28-99 85-99zm-1 174c44 1 53-31 53-75 0-43-8-75-51-75s-53 32-53 75 10 74 51 75" fill="#3a414a" transform="scale(.0617284)"/><use transform="matrix(.0617284 0 0 .0617284 12.345679 0)" xlink:href="#j"/><use transform="matrix(.0617284 0 0 .0617284 24.691358 0)" xlink:href="#k"/><use transform="matrix(.0617284 0 0 .0617284 30.864198 0)" xlink:href="#i"/><use transform="matrix(.0617284 0 0 .0617284 43.209877 0)" xlink:href="#j"/><use transform="matrix(.0617284 0 0 .0617284 55.555556 0)" xlink:href="#k"/><use transform="matrix(.0617284 0 0 .0617284 61.728395 0)" xlink:href="#l"/></g><g transform="translate(676.17784 255.277778)"><use transform="scale(.0617284)" xlink:href="#z"/><use transform="matrix(.0617284 0 0 .0617284 12.345679 0)" xlink:href="#o"/></g><g transform="translate(700.869198 255.277778)"><use transform="scale(.0617284)" xlink:href="#A"/><use transform="matrix(.0617284 0 0 .0617284 12.345679 0)" xlink:href="#h"/><path d="m85-194c31 0 48 13 60 33l-1-100h32l1 261h-30c-2-10 0-23-3-31-10 23-28 35-59 35-53 0-69-39-70-98 0-66 23-100 70-100zm9 24c-40 0-46 34-46 75 0 40 6 74 45 74 42 0 51-32 51-76 0-42-9-74-50-73" fill="#3a414a" transform="matrix(.0617284 0 0 .0617284 24.691358 0)"/></g><path d="m670 321.5v65.12" fill="none" stroke="#3a414a"/><path d="m670.48 321.5h-.96v-.5h.96z" fill="#3a414a" stroke="#3a414a" stroke-width=".05"/><path d="m670 401.38-4.63-14.26h9.26z" fill="#3a414a" stroke="#3a414a"/><path d="m670 525.5v96.12" fill="none" stroke="#3a414a"/><path d="m670.48 525.5h-.96v-.5h.96z" fill="#3a414a" stroke="#3a414a" stroke-width=".05"/><path d="m670 636.38-4.63-14.26h9.26z" fill="#3a414a" stroke="#3a414a"/><path d="m560 645a6 6 0 0 1 6-6h208a6 6 0 0 1 6 6v209a6 6 0 0 1 -6 6h-208a6 6 0 0 1 -6-6z" fill="#fff" stroke="#282c33" stroke-width="2"/><use transform="translate(612.314815 688.152778)" xlink:href="#B"/><use transform="translate(630.833333 688.152778)" xlink:href="#D"/><g transform="translate(649.969136 688.152778)"><use transform="scale(.0617284)" xlink:href="#E"/><use transform="matrix(.0617284 0 0 .0617284 12.345679 0)" xlink:href="#l"/><use transform="matrix(.0617284 0 0 .0617284 18.518519 0)" xlink:href="#E"/><use transform="matrix(.0617284 0 0 .0617284 30.864198 0)" xlink:href="#l"/><use transform="matrix(.0617284 0 0 .0617284 37.037037 0)" xlink:href="#p"/><use transform="matrix(.0617284 0 0 .0617284 49.382716 0)" xlink:href="#g"/><use transform="matrix(.0617284 0 0 .0617284 54.259259 0)" xlink:href="#m"/><use transform="matrix(.0617284 0 0 .0617284 66.604938 0)" xlink:href="#F"/></g><use transform="translate(625.925926 714.819444)" xlink:href="#G"/><g transform="translate(646.91358 714.819444)"><use transform="scale(.0617284)" xlink:href="#H"/><use transform="matrix(.0617284 0 0 .0617284 7.345679 0)" xlink:href="#C"/></g><g transform="translate(673.395062 714.819444)"><use transform="scale(.0617284)" xlink:href="#p"/><use transform="matrix(.0617284 0 0 .0617284 12.345679 0)" xlink:href="#g"/><use transform="matrix(.0617284 0 0 .0617284 17.222222 0)" xlink:href="#m"/><use transform="matrix(.0617284 0 0 .0617284 29.567901 0)" xlink:href="#F"/></g><g transform="translate(612.006173 741.486111)"><use transform="scale(.0617284)" xlink:href="#t"/><use transform="matrix(.0617284 0 0 .0617284 13.518519 0)" xlink:href="#I"/></g><use transform="translate(644.04321 741.486111)" xlink:href="#K"/><g transform="translate(672.438272 741.486111)"><use transform="scale(.0617284)" xlink:href="#E"/><use transform="matrix(.0617284 0 0 .0617284 12.345679 0)" xlink:href="#L"/><use transform="matrix(.0617284 0 0 .0617284 18.518519 0)" xlink:href="#L"/><use transform="matrix(.0617284 0 0 .0617284 24.691358 0)" xlink:href="#L"/><use transform="matrix(.0617284 0 0 .0617284 30.864198 0)" xlink:href="#E"/><use transform="matrix(.0617284 0 0 .0617284 43.209877 0)" xlink:href="#I"/></g><g transform="translate(633.024691 768.152778)"><use transform="scale(.0617284)" xlink:href="#t"/><use transform="matrix(.0617284 0 0 .0617284 13.518519 0)" xlink:href="#M"/></g><use transform="translate(665.061728 768.152778)" xlink:href="#K"/><use transform="translate(693.45679 768.152778)" xlink:href="#N"/><g transform="translate(600.555556 794.819444)"><use transform="scale(.0617284)" xlink:href="#s"/><use transform="matrix(.0617284 0 0 .0617284 14.814815 0)" xlink:href="#n"/><use transform="matrix(.0617284 0 0 .0617284 27.160494 0)" xlink:href="#h"/><use transform="matrix(.0617284 0 0 .0617284 39.506173 0)" xlink:href="#A"/><use transform="matrix(.0617284 0 0 .0617284 51.851852 0)" xlink:href="#O"/></g><use transform="translate(670.925926 794.819444)" xlink:href="#K"/><g transform="translate(699.320988 794.819444)"><use transform="scale(.0617284)" xlink:href="#s"/><use transform="matrix(.0617284 0 0 .0617284 14.814815 0)" xlink:href="#P"/><use transform="matrix(.0617284 0 0 .0617284 27.777778 0)" xlink:href="#E"/></g><g transform="translate(593.45679 821.486111)"><use transform="scale(.0617284)" xlink:href="#s"/><use transform="matrix(.0617284 0 0 .0617284 14.814815 0)" xlink:href="#n"/><use transform="matrix(.0617284 0 0 .0617284 27.160494 0)" xlink:href="#Q"/></g><use transform="translate(632.962963 821.486111)" xlink:href="#K"/><g transform="translate(661.358025 821.486111)"><use transform="scale(.0617284)" xlink:href="#E"/><use transform="matrix(.0617284 0 0 .0617284 12.345679 0)" xlink:href="#P"/><use transform="matrix(.0617284 0 0 .0617284 25.308642 0)" xlink:href="#C"/><use transform="matrix(.0617284 0 0 .0617284 38.271605 0)" xlink:href="#s"/><use transform="matrix(.0617284 0 0 .0617284 53.08642 0)" xlink:href="#P"/><use transform="matrix(.0617284 0 0 .0617284 66.049383 0)" xlink:href="#C"/><use transform="matrix(.0617284 0 0 .0617284 79.012346 0)" xlink:href="#Q"/></g><path d="m590 410a6 6 0 0 1 6-6h148a6 6 0 0 1 6 6v108a6 6 0 0 1 -6 6h-148a6 6 0 0 1 -6-6z" fill="#fff" stroke="#282c33" stroke-width="2"/><use transform="translate(610.154321 442.777778)" xlink:href="#R"/><use transform="translate(628.67284 442.777778)" xlink:href="#K"/><g transform="translate(657.067901 442.777778)"><use transform="scale(.0617284)" xlink:href="#m"/><use transform="matrix(.0617284 0 0 .0617284 12.345679 0)" xlink:href="#n"/><use transform="matrix(.0617284 0 0 .0617284 24.691358 0)" xlink:href="#g"/><use transform="matrix(.0617284 0 0 .0617284 29.567901 0)" xlink:href="#h"/><use transform="matrix(.0617284 0 0 .0617284 41.91358 0)" xlink:href="#i"/><use transform="matrix(.0617284 0 0 .0617284 54.259259 0)" xlink:href="#j"/><use transform="matrix(.0617284 0 0 .0617284 66.604938 0)" xlink:href="#k"/></g><use transform="translate(610.154321 469.444444)" xlink:href="#S"/><use transform="translate(628.67284 469.444444)" xlink:href="#K"/><g transform="translate(657.067901 469.444444)"><use transform="scale(.0617284)" xlink:href="#p"/><use transform="matrix(.0617284 0 0 .0617284 12.345679 0)" xlink:href="#n"/><use transform="matrix(.0617284 0 0 .0617284 24.691358 0)" xlink:href="#g"/><use transform="matrix(.0617284 0 0 .0617284 29.567901 0)" xlink:href="#h"/><use transform="matrix(.0617284 0 0 .0617284 41.91358 0)" xlink:href="#i"/><use transform="matrix(.0617284 0 0 .0617284 54.259259 0)" xlink:href="#j"/><use transform="matrix(.0617284 0 0 .0617284 66.604938 0)" xlink:href="#k"/></g><g transform="translate(608.055556 496.111111)"><use transform="scale(.0617284)" xlink:href="#m"/><use transform="matrix(.0617284 0 0 .0617284 12.345679 0)" xlink:href="#T"/></g><use transform="translate(630.771605 496.111111)" xlink:href="#K"/><g transform="translate(659.166667 496.111111)"><use transform="scale(.0617284)" xlink:href="#m"/><use transform="matrix(.0617284 0 0 .0617284 12.345679 0)" xlink:href="#n"/><use transform="matrix(.0617284 0 0 .0617284 24.691358 0)" xlink:href="#g"/><use transform="matrix(.0617284 0 0 .0617284 29.567901 0)" xlink:href="#h"/><use transform="matrix(.0617284 0 0 .0617284 41.91358 0)" xlink:href="#i"/><use transform="matrix(.0617284 0 0 .0617284 54.259259 0)" xlink:href="#j"/><use transform="matrix(.0617284 0 0 .0617284 66.604938 0)" xlink:href="#k"/></g><path d="m690 586a6 6 0 0 1 6-6h88a6 6 0 0 1 6 6v48a6 6 0 0 1 -6 6h-88a6 6 0 0 1 -6-6z" fill="none"/><use transform="translate(697.746914 615.277778)" xlink:href="#U"/><use transform="translate(750.771605 615.277778)" xlink:href="#D"/><use transform="translate(769.907407 615.277778)" xlink:href="#V"/><path d="m690 335.33a6 6 0 0 1 6-6h128a6 6 0 0 1 6 6v48a6 6 0 0 1 -6 6h-128a6 6 0 0 1 -6-6z" fill="none"/><g transform="translate(687.839506 363.777778)"><use transform="scale(.0617284)" xlink:href="#m"/><use transform="matrix(.0617284 0 0 .0617284 12.345679 0)" xlink:href="#n"/><use transform="matrix(.0617284 0 0 .0617284 24.691358 0)" xlink:href="#w"/><use transform="matrix(.0617284 0 0 .0617284 37.037037 0)" xlink:href="#x"/><use transform="matrix(.0617284 0 0 .0617284 53.024691 0)" xlink:href="#C"/><use transform="matrix(.0617284 0 0 .0617284 65.987654 0)" xlink:href="#p"/><use transform="matrix(.0617284 0 0 .0617284 78.333333 0)" xlink:href="#n"/><use transform="matrix(.0617284 0 0 .0617284 90.679012 0)" xlink:href="#w"/><use transform="matrix(.0617284 0 0 .0617284 103.024691 0)" xlink:href="#x"/><use transform="matrix(.0617284 0 0 .0617284 119.012346 0)" xlink:href="#C"/><use transform="matrix(.0617284 0 0 .0617284 131.975309 0)" xlink:href="#I"/></g><path d="m680 544.67a6 6 0 0 1 6-6h168a6 6 0 0 1 6 6v48a6 6 0 0 1 -6 6h-168a6 6 0 0 1 -6-6z" fill="none"/><g transform="translate(691.666667 573.944444)"><use transform="scale(.0617284)" xlink:href="#m"/><use transform="matrix(.0617284 0 0 .0617284 12.345679 0)" xlink:href="#n"/><use transform="matrix(.0617284 0 0 .0617284 24.691358 0)" xlink:href="#w"/><use transform="matrix(.0617284 0 0 .0617284 37.037037 0)" xlink:href="#x"/><use transform="matrix(.0617284 0 0 .0617284 53.024691 0)" xlink:href="#C"/><use transform="matrix(.0617284 0 0 .0617284 65.987654 0)" xlink:href="#p"/><use transform="matrix(.0617284 0 0 .0617284 78.333333 0)" xlink:href="#n"/><use transform="matrix(.0617284 0 0 .0617284 90.679012 0)" xlink:href="#w"/><use transform="matrix(.0617284 0 0 .0617284 103.024691 0)" xlink:href="#x"/></g><use transform="translate(816.851852 573.944444)" xlink:href="#D"/><use transform="translate(835.987654 573.944444)" xlink:href="#W"/><path d="m665.2 963.6a8 8 0 0 1 9.6 0l70.4 52.8a4.5 4.5 0 0 1 0 7.2l-70.4 52.8a8 8 0 0 1 -9.6 0l-70.4-52.8a4.5 4.5 0 0 1 0-7.2z" fill="#fff" stroke="#282c33" stroke-width="2"/><g transform="translate(653.338333 1024.027778)"><use transform="scale(.0617284)" xlink:href="#s"/><use transform="matrix(.0617284 0 0 .0617284 14.814815 0)" xlink:href="#n"/><use transform="matrix(.0617284 0 0 .0617284 27.160494 0)" xlink:href="#Q"/></g><path d="m670 861.5v83.1" fill="none" stroke="#3a414a"/><path d="m670.48 861.5h-.96v-.5h.96z" fill="#3a414a" stroke="#3a414a" stroke-width=".05"/><path d="m670 959.38-4.63-14.27h9.26z" fill="#3a414a" stroke="#3a414a"/><path d="m680 886a6 6 0 0 1 6-6h88a6 6 0 0 1 6 6v48a6 6 0 0 1 -6 6h-88a6 6 0 0 1 -6-6z" fill="none"/><use transform="translate(687.746914 915.277778)" xlink:href="#U"/><use transform="translate(740.771605 915.277778)" xlink:href="#D"/><use transform="translate(759.907407 915.277778)" xlink:href="#W"/><path d="m591.5 1020h-155.5a6 6 0 0 0 -6 6v116.62" fill="none" stroke="#3a414a"/><path d="m592 1020 .04.48h-.56v-.96h.56z" fill="#3a414a" stroke="#3a414a" stroke-width=".05"/><path d="m430 1157.38-4.63-14.26h9.26z" fill="#3a414a" stroke="#3a414a"/><use transform="translate(425.985246 1008.888889)" xlink:href="#Y"/><path d="m350 1166a6 6 0 0 1 6-6h148a6 6 0 0 1 6 6v108a6 6 0 0 1 -6 6h-148a6 6 0 0 1 -6-6z" fill="#fff" stroke="#282c33" stroke-width="2"/><g transform="translate(372.12963 1210.277778)"><use transform="scale(.0617284)" xlink:href="#r"/><use transform="matrix(.0617284 0 0 .0617284 14.814815 0)" xlink:href="#Z"/><use transform="matrix(.0617284 0 0 .0617284 30.802469 0)" xlink:href="#w"/><use transform="matrix(.0617284 0 0 .0617284 43.148148 0)" xlink:href="#q"/><use transform="matrix(.0617284 0 0 .0617284 50.493827 0)" xlink:href="#t"/><use transform="matrix(.0617284 0 0 .0617284 64.012346 0)" xlink:href="#I"/><use transform="matrix(.0617284 0 0 .0617284 76.358025 0)" xlink:href="#l"/><use transform="matrix(.0617284 0 0 .0617284 82.530864 0)" xlink:href="#t"/><use transform="matrix(.0617284 0 0 .0617284 96.049383 0)" xlink:href="#M"/><use transform="matrix(.0617284 0 0 .0617284 108.395062 0)" xlink:href="#u"/></g><use transform="translate(415.246914 1236.944444)" xlink:href="#aa"/><path d="m748.5 1020h67.1" fill="none" stroke="#3a414a"/><path d="m748.52 1020.48h-.56l.04-.48-.04-.48h.56z" fill="#3a414a" stroke="#3a414a" stroke-width=".05"/><path d="m830.38 1020-14.27 4.63v-9.27z" fill="#3a414a" stroke="#3a414a"/><use transform="translate(785.061728 1008.888889)" xlink:href="#ac"/><path d="m905.2 963.6a8 8 0 0 1 9.6 0l70.4 52.8a4.5 4.5 0 0 1 0 7.2l-70.4 52.8a8 8 0 0 1 -9.6 0l-70.4-52.8a4.5 4.5 0 0 1 0-7.2z" fill="#fff" stroke="#282c33" stroke-width="2"/><use transform="translate(877.906235 1024.027778)" xlink:href="#ad"/><path d="m910.48 1142.62h-.96v-12.95h.96zm0-34.3h-.96v-28.82h.96z" fill="#3a414a" stroke="#3a414a" stroke-width=".05"/><path d="m910 1079 .48-.03v.55h-.96v-.55z" fill="#3a414a"/><path d="m910 1157.38-4.63-14.26h9.26z" fill="#3a414a"/><path d="m910 1158.92-5.3-16.28h10.6zm-3.98-15.33 3.98 12.25 3.98-12.26z" fill="#3a414a" stroke="#3a414a" stroke-width=".05"/><use transform="translate(905.061728 1122.556607)" xlink:href="#Y"/><path d="m830 1166a6 6 0 0 1 6-6h148a6 6 0 0 1 6 6v108a6 6 0 0 1 -6 6h-148a6 6 0 0 1 -6-6z" fill="#fff" stroke="#282c33" stroke-width="2"/><g transform="translate(851.450617 1210.277778)"><use transform="scale(.0617284)" xlink:href="#m"/><use transform="matrix(.0617284 0 0 .0617284 12.345679 0)" xlink:href="#J"/><use transform="matrix(.0617284 0 0 .0617284 34.567901 0)" xlink:href="#F"/><use transform="matrix(.0617284 0 0 .0617284 45.679012 0)" xlink:href="#z"/><use transform="matrix(.0617284 0 0 .0617284 58.024691 0)" xlink:href="#m"/><use transform="matrix(.0617284 0 0 .0617284 70.37037 0)" xlink:href="#y"/><use transform="matrix(.0617284 0 0 .0617284 77.716049 0)" xlink:href="#A"/><use transform="matrix(.0617284 0 0 .0617284 90.061728 0)" xlink:href="#q"/><use transform="matrix(.0617284 0 0 .0617284 97.407407 0)" xlink:href="#m"/><use transform="matrix(.0617284 0 0 .0617284 109.753086 0)" xlink:href="#u"/></g><g transform="translate(889.62963 1236.944444)"><use transform="scale(.0617284)" xlink:href="#s"/><use transform="matrix(.0617284 0 0 .0617284 14.814815 0)" xlink:href="#ae"/><use transform="matrix(.0617284 0 0 .0617284 27.777778 0)" xlink:href="#ae"/></g><path d="m1024 1166a6 6 0 0 1 6-6h148a6 6 0 0 1 6 6v108a6 6 0 0 1 -6 6h-148a6 6 0 0 1 -6-6z" fill="#fff" stroke="#282c33" stroke-width="2"/><g transform="translate(1054.709877 1210.277778)"><use transform="scale(.0617284)" xlink:href="#m"/><use transform="matrix(.0617284 0 0 .0617284 12.345679 0)" xlink:href="#J"/><use transform="matrix(.0617284 0 0 .0617284 34.567901 0)" xlink:href="#F"/><use transform="matrix(.0617284 0 0 .0617284 45.679012 0)" xlink:href="#z"/><use transform="matrix(.0617284 0 0 .0617284 58.024691 0)" xlink:href="#y"/><use transform="matrix(.0617284 0 0 .0617284 65.37037 0)" xlink:href="#k"/><use transform="matrix(.0617284 0 0 .0617284 71.54321 0)" xlink:href="#q"/><use transform="matrix(.0617284 0 0 .0617284 78.888889 0)" xlink:href="#m"/><use transform="matrix(.0617284 0 0 .0617284 91.234568 0)" xlink:href="#u"/></g><use transform="translate(1089.246914 1236.944444)" xlink:href="#aa"/><path d="m910 1281.5v43.5a6 6 0 0 0 6 6h98a6 6 0 0 1 6 6v27.6" fill="none" stroke="#3a414a"/><path d="m910.48 1281.5h-.96v-.5h.96z" fill="#3a414a" stroke="#3a414a" stroke-width=".05"/><path d="m1020 1379.38-4.63-14.27h9.26z" fill="#3a414a" stroke="#3a414a"/><path d="m1015.2 1383.6a8 8 0 0 1 9.6 0l70.4 52.8a4.5 4.5 0 0 1 0 7.2l-70.4 52.8a8 8 0 0 1 -9.6 0l-70.4-52.8a4.5 4.5 0 0 1 0-7.2z" fill="#fff" stroke="#282c33" stroke-width="2"/><use transform="translate(999.943272 1444.027778)" xlink:href="#af"/><path d="m1104 1281.5v43.5a6 6 0 0 1 -6 6h-72a6 6 0 0 0 -6 6v27.6" fill="none" stroke="#3a414a"/><path d="m1104.47 1281.5h-.94v-.5h.94z" fill="#3a414a" stroke="#3a414a" stroke-width=".05"/><path d="m1020 1379.38-4.63-14.27h9.26z" fill="#3a414a" stroke="#3a414a"/><path d="m1104.47 1142.62h-.94v-18.62h.94zm-5.47-123.02 1 .24.94.4.87.52.78.66.66.77.53.86.4.94.23 1 .07.98v76.7h-.94v-76.67l-.07-.88-.2-.85-.34-.8-.45-.75-.56-.66-.65-.57-.74-.45-.8-.33-.84-.2-.88-.07h-109.51v-.96h109.52z" fill="#3a414a" stroke="#3a414a" stroke-width=".05"/><path d="m988.52 1020.48h-.56l.04-.48-.04-.48h.56z" fill="#3a414a"/><path d="m1104 1157.38-4.63-14.26h9.27z" fill="#3a414a"/><path d="m1104 1158.92-5.3-16.28h10.6zm-3.98-15.33 3.98 12.25 3.98-12.26z" fill="#3a414a" stroke="#3a414a" stroke-width=".05"/><use transform="translate(1099.061728 1116.888889)" xlink:href="#ac"/><path d="m1220.47 1434.02-.07 1-.24.98-.4.94-.52.87-.66.78-.77.66-.86.53-.94.4-1 .23-.98.07h-115.53v-.94h115.48l.88-.07.85-.2.8-.34.75-.45.66-.56.57-.65.45-.74.33-.8.2-.84.08-.88v-356.82h.94zm-5.47-513.42 1 .24.94.4.87.52.78.66.66.77.53.86.4.94.23 1 .07.98v128.85h-.94v-128.8l-.07-.9-.2-.84-.34-.8-.45-.75-.56-.66-.65-.57-.74-.45-.8-.34-.84-.2-.88-.07h-297.99l-.88.07-.85.2-.8.34-.75.45-.66.56-.57.65-.45.74-.33.8-.2.83-.07.9v17.58h-.96v-17.56l.08-1 .24-.98.4-.94.52-.87.66-.78.77-.66.86-.53.94-.4 1-.23.98-.08h298.04z" fill="#3a414a" stroke="#3a414a" stroke-width=".05"/><path d="m1098.52 1440.47h-.56l.04-.47-.04-.47h.56z" fill="#3a414a"/><path d="m910 959.38-4.63-14.27h9.26z" fill="#3a414a"/><path d="m910 960.92-5.3-16.28h10.6zm-3.98-15.33 3.98 12.24 3.98-12.25z" fill="#3a414a" stroke="#3a414a" stroke-width=".05"/><use transform="translate(1208.197531 1070.052392)" xlink:href="#ag"/><path d="m1020.48 1562.62h-.96v-12.95h.96zm0-34.3h-.96v-28.82h.96z" fill="#3a414a" stroke="#3a414a" stroke-width=".05"/><path d="m1020 1499 .48-.03v.55h-.96v-.55z" fill="#3a414a"/><path d="m1020 1577.38-4.63-14.26h9.26z" fill="#3a414a"/><path d="m1020 1578.92-5.3-16.28h10.6zm-3.98-15.33 3.98 12.25 3.98-12.26z" fill="#3a414a" stroke="#3a414a" stroke-width=".05"/><use transform="translate(1004.691358 1542.556607)" xlink:href="#ah"/><path d="m940 1586a6 6 0 0 1 6-6h148a6 6 0 0 1 6 6v108a6 6 0 0 1 -6 6h-148a6 6 0 0 1 -6-6z" fill="#fff" stroke="#282c33" stroke-width="2"/><use transform="translate(994.691358 1644.027778)" xlink:href="#aj"/><path d="m1020 1701.5v63.1" fill="none" stroke="#3a414a"/><path d="m1020.48 1701.5h-.96v-.5h.96z" fill="#3a414a" stroke="#3a414a" stroke-width=".05"/><path d="m1020 1779.38-4.63-14.27h9.26z" fill="#3a414a" stroke="#3a414a"/><path d="m1015.2 1783.6a8 8 0 0 1 9.6 0l70.4 52.8a4.5 4.5 0 0 1 0 7.2l-70.4 52.8a8 8 0 0 1 -9.6 0l-70.4-52.8a4.5 4.5 0 0 1 0-7.2z" fill="#fff" stroke="#282c33" stroke-width="2"/><use transform="translate(987.906235 1844.027778)" xlink:href="#ad"/><path d="m1180.47 1942.62h-.94v-20.44h.94zm-5.47-103.02 1 .24.94.4.87.52.78.66.66.77.53.86.4.94.23 1 .07.98v54.86h-.94v-54.82l-.07-.88-.2-.85-.34-.8-.45-.75-.56-.66-.65-.57-.74-.45-.8-.33-.84-.2-.88-.08h-75.48v-.94h75.52z" fill="#3a414a" stroke="#3a414a" stroke-width=".05"/><path d="m1098.52 1840.47h-.56l.04-.47-.04-.47h.56z" fill="#3a414a"/><path d="m1180 1957.38-4.63-14.26h9.27z" fill="#3a414a"/><path d="m1180 1958.92-5.3-16.28h10.6zm-3.98-15.33 3.98 12.25 3.98-12.26z" fill="#3a414a" stroke="#3a414a" stroke-width=".05"/><use transform="translate(1175.061728 1915.065375)" xlink:href="#ac"/><path d="m1100 1966a6 6 0 0 1 6-6h148a6 6 0 0 1 6 6v108a6 6 0 0 1 -6 6h-148a6 6 0 0 1 -6-6z" fill="#fff" stroke="#282c33" stroke-width="2"/><g transform="translate(1128.950617 2010.277778)"><use transform="scale(.0617284)" xlink:href="#g"/><use transform="matrix(.0617284 0 0 .0617284 4.876543 0)" xlink:href="#J"/><use transform="matrix(.0617284 0 0 .0617284 27.098765 0)" xlink:href="#r"/><use transform="matrix(.0617284 0 0 .0617284 41.91358 0)" xlink:href="#Z"/><use transform="matrix(.0617284 0 0 .0617284 57.901235 0)" xlink:href="#ak"/><use transform="matrix(.0617284 0 0 .0617284 73.888889 0)" xlink:href="#q"/><use transform="matrix(.0617284 0 0 .0617284 81.234568 0)" xlink:href="#t"/><use transform="matrix(.0617284 0 0 .0617284 94.753086 0)" xlink:href="#u"/></g><g transform="translate(1130.709877 2036.944444)"><use transform="scale(.0617284)" xlink:href="#m"/><use transform="matrix(.0617284 0 0 .0617284 12.345679 0)" xlink:href="#J"/><use transform="matrix(.0617284 0 0 .0617284 34.567901 0)" xlink:href="#F"/><use transform="matrix(.0617284 0 0 .0617284 45.679012 0)" xlink:href="#z"/><use transform="matrix(.0617284 0 0 .0617284 58.024691 0)" xlink:href="#y"/><use transform="matrix(.0617284 0 0 .0617284 65.37037 0)" xlink:href="#k"/><use transform="matrix(.0617284 0 0 .0617284 71.54321 0)" xlink:href="#q"/><use transform="matrix(.0617284 0 0 .0617284 78.888889 0)" xlink:href="#m"/><use transform="matrix(.0617284 0 0 .0617284 91.234568 0)" xlink:href="#u"/></g><path d="m870.48 1942.62h-.96v-30.62h.96zm71.02-102.14h-65.48l-.88.06-.85.2-.8.34-.75.45-.66.56-.57.65-.45.74-.33.8-.2.84-.07.88v44.65h-.96v-44.7l.08-.98.24-1 .4-.94.52-.87.66-.78.77-.66.86-.53.94-.4 1-.23.98-.07h65.52z" fill="#3a414a" stroke="#3a414a" stroke-width=".05"/><path d="m942 1840 .04.47h-.56v-.94h.56z" fill="#3a414a"/><path d="m870 1957.38-4.63-14.26h9.26z" fill="#3a414a"/><path d="m870 1958.92-5.3-16.28h10.6zm-3.98-15.33 3.98 12.25 3.98-12.26z" fill="#3a414a" stroke="#3a414a" stroke-width=".05"/><use transform="translate(865.061728 1904.888889)" xlink:href="#Y"/><path d="m790 1966a6 6 0 0 1 6-6h148a6 6 0 0 1 6 6v108a6 6 0 0 1 -6 6h-148a6 6 0 0 1 -6-6z" fill="#fff" stroke="#282c33" stroke-width="2"/><g transform="translate(820.771605 2010.277778)"><use transform="scale(.0617284)" xlink:href="#g"/><use transform="matrix(.0617284 0 0 .0617284 4.876543 0)" xlink:href="#J"/><use transform="matrix(.0617284 0 0 .0617284 27.098765 0)" xlink:href="#r"/><use transform="matrix(.0617284 0 0 .0617284 41.91358 0)" xlink:href="#Z"/><use transform="matrix(.0617284 0 0 .0617284 57.901235 0)" xlink:href="#w"/><use transform="matrix(.0617284 0 0 .0617284 70.246914 0)" xlink:href="#q"/><use transform="matrix(.0617284 0 0 .0617284 77.592593 0)" xlink:href="#t"/><use transform="matrix(.0617284 0 0 .0617284 91.111111 0)" xlink:href="#u"/></g><g transform="translate(805.277778 2036.944444)"><use transform="scale(.0617284)" xlink:href="#m"/><use transform="matrix(.0617284 0 0 .0617284 12.345679 0)" xlink:href="#J"/><use transform="matrix(.0617284 0 0 .0617284 34.567901 0)" xlink:href="#F"/><use transform="matrix(.0617284 0 0 .0617284 45.679012 0)" xlink:href="#z"/><use transform="matrix(.0617284 0 0 .0617284 58.024691 0)" xlink:href="#j"/><use transform="matrix(.0617284 0 0 .0617284 70.37037 0)" xlink:href="#m"/><use transform="matrix(.0617284 0 0 .0617284 82.716049 0)" xlink:href="#y"/><use transform="matrix(.0617284 0 0 .0617284 90.061728 0)" xlink:href="#A"/><use transform="matrix(.0617284 0 0 .0617284 102.407407 0)" xlink:href="#q"/><use transform="matrix(.0617284 0 0 .0617284 109.753086 0)" xlink:href="#m"/><use transform="matrix(.0617284 0 0 .0617284 122.098765 0)" xlink:href="#u"/></g><path d="m870 2081.5v33.5a6 6 0 0 0 6 6h138a6 6 0 0 1 6 6v17.6" fill="none" stroke="#3a414a"/><path d="m870.48 2081.5h-.96v-.5h.96z" fill="#3a414a" stroke="#3a414a" stroke-width=".05"/><path d="m1020 2159.38-4.63-14.27h9.26z" fill="#3a414a" stroke="#3a414a"/><path d="m1015.2 2163.6a8 8 0 0 1 9.6 0l70.4 52.8a4.5 4.5 0 0 1 0 7.2l-70.4 52.8a8 8 0 0 1 -9.6 0l-70.4-52.8a4.5 4.5 0 0 1 0-7.2z" fill="#fff" stroke="#282c33" stroke-width="2"/><use transform="translate(1017.566728 2224.027778)" xlink:href="#al"/><path d="m1178.67 2081.5v33.5a6 6 0 0 1 -6 6h-146.67a6 6 0 0 0 -6 6v17.6" fill="none" stroke="#3a414a"/><path d="m1179.14 2081.5h-.95v-.5h.94z" fill="#3a414a" stroke="#3a414a" stroke-width=".05"/><path d="m1020 2159.38-4.63-14.27h9.26z" fill="#3a414a" stroke="#3a414a"/><path d="m1133.56 2220.47h-35.06v-.94h35.06zm29.06 0h-19.18v-.94h19.18z" fill="#3a414a" stroke="#3a414a" stroke-width=".05"/><path d="m1098.52 2220.47h-.56l.04-.47-.04-.47h.56z" fill="#3a414a"/><path d="m1177.38 2220-14.26 4.64v-9.28z" fill="#3a414a"/><path d="m1178.92 2220-16.28 5.3v-10.6zm-15.33 3.98 12.25-3.98-12.26-3.98z" fill="#3a414a" stroke="#3a414a" stroke-width=".05"/><use transform="translate(1133.56389 2223.555556)" xlink:href="#ac"/><path d="m1180 2166a6 6 0 0 1 6-6h148a6 6 0 0 1 6 6v108a6 6 0 0 1 -6 6h-148a6 6 0 0 1 -6-6z" fill="#fff" stroke="#282c33" stroke-width="2"/><use transform="translate(1226.049383 2224.027778)" xlink:href="#an"/><path d="m1020.48 2524.6h-.96v-156.2h.96zm0-177.54h-.96v-67.56h.96z" fill="#3a414a" stroke="#3a414a" stroke-width=".05"/><path d="m1020 2279 .48-.03v.55h-.96v-.55z" fill="#3a414a"/><path d="m1020 2539.38-4.63-14.27h9.26z" fill="#3a414a"/><path d="m1020 2540.92-5.3-16.28h10.6zm-3.98-15.33 3.98 12.24 3.98-12.25z" fill="#3a414a" stroke="#3a414a" stroke-width=".05"/><use transform="translate(1015.061728 2361.284519)" xlink:href="#Y"/><path d="m1015.2 2543.6a8 8 0 0 1 9.6 0l70.4 52.8a4.5 4.5 0 0 1 0 7.2l-70.4 52.8a8 8 0 0 1 -9.6 0l-70.4-52.8a4.5 4.5 0 0 1 0-7.2z" fill="#fff" stroke="#282c33" stroke-width="2"/><use transform="translate(996.239568 2604.027778)" xlink:href="#ao"/><path d="m1400.47 2594.02-.07 1-.24.98-.4.94-.52.87-.66.78-.77.66-.86.53-.94.4-1 .23-.98.07h-295.53v-.94h295.48l.88-.07.85-.2.8-.34.75-.45.66-.56.57-.65.45-.74.33-.8.2-.84.08-.88v-471.82h.94zm-5.47-853.42 1 .24.94.4.87.52.78.66.66.77.53.86.4.94.23.98.07 1v353.85h-.94v-353.8l-.07-.9-.2-.84-.34-.8-.45-.75-.56-.66-.65-.57-.74-.45-.8-.34-.84-.2-.88-.07h-367.96l-.88.07-.85.2-.8.34-.75.45-.66.56-.57.65-.45.74-.33.8-.2.83-.07.9v17.58h-.96v-17.56l.08-1 .24-.98.4-.94.52-.87.66-.78.77-.66.86-.53.94-.4 1-.23.98-.08h368.04z" fill="#3a414a" stroke="#3a414a" stroke-width=".05"/><path d="m1098.52 2600.47h-.56l.04-.47-.04-.47h.56z" fill="#3a414a"/><path d="m1020 1779.38-4.63-14.27h9.26z" fill="#3a414a"/><path d="m1020 1780.92-5.3-16.28h10.6zm-3.98-15.33 3.98 12.24 3.98-12.25z" fill="#3a414a" stroke="#3a414a" stroke-width=".05"/><use transform="translate(1388.197531 2115.052392)" xlink:href="#ag"/><path d="m1263.14 2405.02-.08 1-.23.98-.4.94-.52.87-.65.78-.78.66-.86.53-.93.4-1 .23-1 .07h-230.65l-.88.07-.85.2-.8.34-.75.45-.66.56-.57.65-.45.74-.33.8-.2.84-.07.88v107.6h-.96v-107.64l.08-1 .24-.98.4-.94.52-.87.66-.78.77-.66.86-.53.94-.4 1-.23.98-.08h230.67l.88-.07.84-.2.8-.33.74-.45.67-.56.57-.65.45-.74.32-.8.2-.84.07-.88v-123.48h.94z" fill="#3a414a" stroke="#3a414a" stroke-width=".05"/><path d="m1263.14 2281.5h-.95v-.5h.94z" fill="#3a414a"/><path d="m1020 2539.38-4.63-14.27h9.26z" fill="#3a414a"/><path d="m1020 2540.92-5.3-16.28h10.6zm-3.98-15.33 3.98 12.24 3.98-12.25z" fill="#3a414a" stroke="#3a414a" stroke-width=".05"/><path d="m430 1281.5v63.1" fill="none" stroke="#3a414a"/><path d="m430.48 1281.5h-.96v-.5h.96z" fill="#3a414a" stroke="#3a414a" stroke-width=".05"/><path d="m430 1359.38-4.63-14.27h9.26z" fill="#3a414a" stroke="#3a414a"/><path d="m425.2 1363.6a8 8 0 0 1 9.6 0l70.4 52.8a4.5 4.5 0 0 1 0 7.2l-70.4 52.8a8 8 0 0 1 -9.6 0l-70.4-52.8a4.5 4.5 0 0 1 0-7.2z" fill="#fff" stroke="#282c33" stroke-width="2"/><use transform="translate(409.943272 1424.027778)" xlink:href="#af"/><path d="m430.48 1542.62h-.96v-12.95h.96zm0-34.3h-.96v-28.82h.96z" fill="#3a414a" stroke="#3a414a" stroke-width=".05"/><path d="m430 1479 .48-.03v.55h-.96v-.55z" fill="#3a414a"/><path d="m430 1557.38-4.63-14.26h9.26z" fill="#3a414a"/><path d="m430 1558.92-5.3-16.28h10.6zm-3.98-15.33 3.98 12.25 3.98-12.26z" fill="#3a414a" stroke="#3a414a" stroke-width=".05"/><use transform="translate(414.691358 1522.556607)" xlink:href="#ah"/><path d="m350 1566a6 6 0 0 1 6-6h148a6 6 0 0 1 6 6v108a6 6 0 0 1 -6 6h-148a6 6 0 0 1 -6-6z" fill="#fff" stroke="#282c33" stroke-width="2"/><use transform="translate(404.691358 1624.027778)" xlink:href="#aj"/><path d="m309.48 1413.98.06.88.2.85.34.8.45.75.56.66.65.57.74.45.8.33.84.2.88.08h36.48v.94h-36.52l-1-.07-.98-.24-.94-.4-.87-.52-.78-.66-.66-.77-.53-.86-.4-.94-.23-1-.08-.98v-81.86h.96zm23.14-193.5h-17.6l-.88.06-.85.2-.8.34-.75.45-.66.56-.57.65-.45.74-.33.8-.2.84-.07.88v84.8h-.96v-84.8l.08-1 .24-.98.4-.94.52-.87.66-.78.77-.66.86-.53.94-.4 1-.23.98-.07h17.64z" fill="#3a414a" stroke="#3a414a" stroke-width=".05"/><path d="m352 1420 .04.47h-.56v-.94h.56z" fill="#3a414a"/><path d="m347.38 1220-14.26 4.63v-9.27z" fill="#3a414a"/><path d="m348.92 1220-16.28 5.3v-10.6zm-15.33 3.98 12.25-3.98-12.26-3.98z" fill="#3a414a" stroke="#3a414a" stroke-width=".05"/><use transform="translate(297.197581 1325.053394)" xlink:href="#ag"/><path d="m430 1681.5v261.12" fill="none" stroke="#3a414a"/><path d="m430.48 1681.5h-.96v-.5h.96z" fill="#3a414a" stroke="#3a414a" stroke-width=".05"/><path d="m430 1957.38-4.63-14.26h9.26z" fill="#3a414a" stroke="#3a414a"/><path d="m350 1966a6 6 0 0 1 6-6h148a6 6 0 0 1 6 6v108a6 6 0 0 1 -6 6h-148a6 6 0 0 1 -6-6z" fill="#fff" stroke="#282c33" stroke-width="2"/><g transform="translate(372.777778 1986.215278)"><use transform="scale(.0617284)" xlink:href="#g"/><use transform="matrix(.0617284 0 0 .0617284 4.876543 0)" xlink:href="#J"/><use transform="matrix(.0617284 0 0 .0617284 27.098765 0)" xlink:href="#r"/><use transform="matrix(.0617284 0 0 .0617284 41.91358 0)" xlink:href="#Z"/><use transform="matrix(.0617284 0 0 .0617284 57.901235 0)" xlink:href="#ak"/><use transform="matrix(.0617284 0 0 .0617284 73.888889 0)" xlink:href="#q"/><use transform="matrix(.0617284 0 0 .0617284 81.234568 0)" xlink:href="#t"/><use transform="matrix(.0617284 0 0 .0617284 94.753086 0)" xlink:href="#I"/><use transform="matrix(.0617284 0 0 .0617284 107.098765 0)" xlink:href="#u"/></g><g transform="translate(374.598765 2012.881944)"><use transform="scale(.0617284)" xlink:href="#ap"/><use transform="matrix(.0617284 0 0 .0617284 4.876543 0)" xlink:href="#J"/><use transform="matrix(.0617284 0 0 .0617284 27.098765 0)" xlink:href="#r"/><use transform="matrix(.0617284 0 0 .0617284 41.91358 0)" xlink:href="#Z"/><use transform="matrix(.0617284 0 0 .0617284 57.901235 0)" xlink:href="#w"/><use transform="matrix(.0617284 0 0 .0617284 70.246914 0)" xlink:href="#q"/><use transform="matrix(.0617284 0 0 .0617284 77.592593 0)" xlink:href="#t"/><use transform="matrix(.0617284 0 0 .0617284 91.111111 0)" xlink:href="#M"/><use transform="matrix(.0617284 0 0 .0617284 103.45679 0)" xlink:href="#u"/></g><g transform="translate(365.277778 2039.548611)"><use transform="scale(.0617284)" xlink:href="#m"/><use transform="matrix(.0617284 0 0 .0617284 12.345679 0)" xlink:href="#J"/><use transform="matrix(.0617284 0 0 .0617284 34.567901 0)" xlink:href="#F"/><use transform="matrix(.0617284 0 0 .0617284 45.679012 0)" xlink:href="#z"/><use transform="matrix(.0617284 0 0 .0617284 58.024691 0)" xlink:href="#j"/><use transform="matrix(.0617284 0 0 .0617284 70.37037 0)" xlink:href="#m"/><use transform="matrix(.0617284 0 0 .0617284 82.716049 0)" xlink:href="#y"/><use transform="matrix(.0617284 0 0 .0617284 90.061728 0)" xlink:href="#A"/><use transform="matrix(.0617284 0 0 .0617284 102.407407 0)" xlink:href="#q"/><use transform="matrix(.0617284 0 0 .0617284 109.753086 0)" xlink:href="#m"/><use transform="matrix(.0617284 0 0 .0617284 122.098765 0)" xlink:href="#u"/></g><g transform="translate(376.512346 2066.215278)"><use transform="scale(.0617284)" xlink:href="#m"/><use transform="matrix(.0617284 0 0 .0617284 12.345679 0)" xlink:href="#T"/><use transform="matrix(.0617284 0 0 .0617284 16.54321 0)" xlink:href="#J"/><use transform="matrix(.0617284 0 0 .0617284 38.765432 0)" xlink:href="#F"/><use transform="matrix(.0617284 0 0 .0617284 49.876543 0)" xlink:href="#z"/><use transform="matrix(.0617284 0 0 .0617284 62.222222 0)" xlink:href="#y"/><use transform="matrix(.0617284 0 0 .0617284 69.567901 0)" xlink:href="#k"/><use transform="matrix(.0617284 0 0 .0617284 75.740741 0)" xlink:href="#q"/><use transform="matrix(.0617284 0 0 .0617284 83.08642 0)" xlink:href="#m"/><use transform="matrix(.0617284 0 0 .0617284 95.432099 0)" xlink:href="#T"/><use transform="matrix(.0617284 0 0 .0617284 99.62963 0)" xlink:href="#u"/></g><path d="m430 2081.5v63.1" fill="none" stroke="#3a414a"/><path d="m430.48 2081.5h-.96v-.5h.96z" fill="#3a414a" stroke="#3a414a" stroke-width=".05"/><path d="m430 2159.38-4.63-14.27h9.26z" fill="#3a414a" stroke="#3a414a"/><path d="m425.2 2163.6a8 8 0 0 1 9.6 0l70.4 52.8a4.5 4.5 0 0 1 0 7.2l-70.4 52.8a8 8 0 0 1 -9.6 0l-70.4-52.8a4.5 4.5 0 0 1 0-7.2z" fill="#fff" stroke="#282c33" stroke-width="2"/><use transform="translate(427.566728 2224.027778)" xlink:href="#al"/><path d="m543.56 2220.47h-35.06v-.94h35.06zm29.06 0h-19.18v-.94h19.18z" fill="#3a414a" stroke="#3a414a" stroke-width=".05"/><path d="m508.52 2220.47h-.56l.04-.47-.04-.47h.56z" fill="#3a414a"/><path d="m587.38 2220-14.26 4.64v-9.28z" fill="#3a414a"/><path d="m588.92 2220-16.28 5.3v-10.6zm-15.33 3.98 12.25-3.98-12.26-3.98z" fill="#3a414a" stroke="#3a414a" stroke-width=".05"/><use transform="translate(543.56389 2223.555556)" xlink:href="#ac"/><path d="m590 2166a6 6 0 0 1 6-6h148a6 6 0 0 1 6 6v108a6 6 0 0 1 -6 6h-148a6 6 0 0 1 -6-6z" fill="#fff" stroke="#282c33" stroke-width="2"/><use transform="translate(636.049383 2224.027778)" xlink:href="#an"/><path d="m430.48 2344.6h-.96v-35.84h.96zm0-57.17h-.96v-7.93h.96z" fill="#3a414a" stroke="#3a414a" stroke-width=".05"/><path d="m430 2279 .48-.03v.55h-.96v-.55z" fill="#3a414a"/><path d="m430 2359.38-4.63-14.27h9.26z" fill="#3a414a"/><path d="m430 2360.92-5.3-16.28h10.6zm-3.98-15.33 3.98 12.24 3.98-12.25z" fill="#3a414a" stroke="#3a414a" stroke-width=".05"/><use transform="translate(425.061728 2301.647143)" xlink:href="#Y"/><path d="m425.2 2363.6a8 8 0 0 1 9.6 0l70.4 52.8a4.5 4.5 0 0 1 0 7.2l-70.4 52.8a8 8 0 0 1 -9.6 0l-70.4-52.8a4.5 4.5 0 0 1 0-7.2z" fill="#fff" stroke="#282c33" stroke-width="2"/><use transform="translate(427.566728 2424.027778)" xlink:href="#aq"/><path d="m543.56 2420.47h-35.06v-.94h35.06zm29.06 0h-19.18v-.94h19.18z" fill="#3a414a" stroke="#3a414a" stroke-width=".05"/><path d="m508.52 2420.47h-.56l.04-.47-.04-.47h.56z" fill="#3a414a"/><path d="m587.38 2420-14.26 4.64v-9.28z" fill="#3a414a"/><path d="m588.92 2420-16.28 5.3v-10.6zm-15.33 3.98 12.25-3.98-12.26-3.98z" fill="#3a414a" stroke="#3a414a" stroke-width=".05"/><use transform="translate(543.56389 2423.555556)" xlink:href="#ac"/><path d="m590 2366a6 6 0 0 1 6-6h148a6 6 0 0 1 6 6v108a6 6 0 0 1 -6 6h-148a6 6 0 0 1 -6-6z" fill="#fff" stroke="#282c33" stroke-width="2"/><g transform="translate(633.950617 2424.027778)"><use transform="scale(.0617284)" xlink:href="#z"/><use transform="matrix(.0617284 0 0 .0617284 12.345679 0)" xlink:href="#J"/><use transform="matrix(.0617284 0 0 .0617284 34.567901 0)" xlink:href="#z"/><use transform="matrix(.0617284 0 0 .0617284 46.91358 0)" xlink:href="#am"/><use transform="matrix(.0617284 0 0 .0617284 55.555556 0)" xlink:href="#m"/><use transform="matrix(.0617284 0 0 .0617284 67.901235 0)" xlink:href="#T"/></g><g fill="#3a414a"><path d="m670.48 2315.02-.08 1-.24.98-.4.94-.52.87-.66.78-.77.66-.86.53-.94.4-1 .23-.98.07h-228l-.88.07-.85.2-.8.34-.75.45-.66.56-.57.65-.45.74-.33.8-.2.84-.07.88v17.6h-.96v-17.64l.08-1 .24-.98.4-.94.52-.87.66-.78.77-.66.86-.53.94-.4 1-.23.98-.08h228l.88-.07.85-.2.8-.33.75-.45.66-.56.57-.65.45-.74.33-.8.2-.84.07-.88v-33.48h.96z" stroke="#3a414a" stroke-width=".05"/><path d="m670.48 2281.5h-.96v-.5h.96z"/><path d="m430 2359.38-4.63-14.27h9.26z"/><path d="m430 2360.92-5.3-16.28h10.6zm-3.98-15.33 3.98 12.24 3.98-12.25zm4.46 199.01h-.96v-34.26h.96zm0-55.6h-.96v-9.5h.96z" stroke="#3a414a" stroke-width=".05"/><path d="m430 2479 .48-.03v.55h-.96v-.55z"/><path d="m430 2559.38-4.63-14.27h9.26z"/><path d="m430 2560.92-5.3-16.28h10.6zm-3.98-15.33 3.98 12.24 3.98-12.25z" stroke="#3a414a" stroke-width=".05"/></g><use transform="translate(425.061728 2503.224866)" xlink:href="#Y"/><path d="m425.2 2563.6a8 8 0 0 1 9.6 0l70.4 52.8a4.5 4.5 0 0 1 0 7.2l-70.4 52.8a8 8 0 0 1 -9.6 0l-70.4-52.8a4.5 4.5 0 0 1 0-7.2z" fill="#fff" stroke="#282c33" stroke-width="2"/><use transform="translate(406.239568 2624.027778)" xlink:href="#ao"/><path d="m670.48 2515.02-.08 1-.24.98-.4.94-.52.87-.66.78-.77.66-.86.53-.94.4-1 .23-.98.07h-228l-.88.07-.85.2-.8.34-.75.45-.66.56-.57.65-.45.74-.33.8-.2.84-.07.88v17.6h-.96v-17.64l.08-1 .24-.98.4-.94.52-.87.66-.78.77-.66.86-.53.94-.4 1-.23.98-.08h228l.88-.07.85-.2.8-.33.75-.45.66-.56.57-.65.45-.74.33-.8.2-.84.07-.88v-33.48h.96z" fill="#3a414a" stroke="#3a414a" stroke-width=".05"/><path d="m670.48 2481.5h-.96v-.5h.96z" fill="#3a414a"/><path d="m430 2559.38-4.63-14.27h9.26z" fill="#3a414a"/><path d="m430 2560.92-5.3-16.28h10.6zm-3.98-15.33 3.98 12.24 3.98-12.25zm-115.54 68.39.06.88.2.85.34.8.45.75.56.66.65.57.74.45.8.33.84.2.88.08h35.48v.94h-35.52l-1-.07-.98-.24-.94-.4-.87-.52-.78-.66-.66-.77-.53-.86-.4-.94-.23-1-.08-.98v-392.86h.96zm114.52-695.38 1 .24.94.4.87.52.78.66.66.77.53.86.4.94.23 1 .08.98v17.64h-.96v-17.6l-.06-.88-.2-.85-.34-.8-.45-.75-.56-.66-.65-.57-.74-.45-.8-.33-.84-.2-.88-.08h-107.99l-.88.08-.85.2-.8.33-.75.45-.66.56-.57.65-.45.74-.33.8-.2.84-.07.88v274.8h-.96v-274.77l.08-1 .24-.98.4-.94.52-.87.66-.78.77-.66.86-.53.94-.4 1-.23.98-.07h108.04z" fill="#3a414a" stroke="#3a414a" stroke-width=".05"/><path d="m352 2620 .04.47h-.56v-.94h.56z" fill="#3a414a"/><path d="m430 1957.38-4.63-14.26h9.26z" fill="#3a414a"/><path d="m430 1958.92-5.3-16.28h10.6zm-3.98-15.33 3.98 12.25 3.98-12.26z" fill="#3a414a" stroke="#3a414a" stroke-width=".05"/><use transform="translate(298.197531 2214.053444)" xlink:href="#ag"/></g></svg>